<?xml version="1.0" encoding="UTF-8" standalone="no"?>
<!DOCTYPE svg PUBLIC "-//W3C//DTD SVG 1.1//EN" "http://www.w3.org/Graphics/SVG/1.1/DTD/svg11.dtd">
<!-- Generated by graphviz version 2.40.1 (20161225.0304)
 -->
<!-- Title: layout Pages: 1 -->
<svg width="1659pt" height="400pt" viewBox="0.00 0.00 1659.00 400.00" xmlns="http://www.w3.org/2000/svg" xmlns:xlink="http://www.w3.org/1999/xlink">
<g id="graph0" class="graph" transform="scale(1 1) rotate(0) translate(4 396)">
<title>layout</title>
<polygon fill="#ffffff" stroke="transparent" points="-4,4 -4,-396 1655,-396 1655,4 -4,4"/>
<g id="clust2" class="cluster">
<title>cluster001</title>
<polygon fill="none" stroke="#000000" points="8,-224 8,-276 717,-276 717,-224 8,-224"/>
</g>
<g id="clust5" class="cluster">
<title>cluster002</title>
<polygon fill="none" stroke="#000000" points="374,-116 374,-168 717,-168 717,-116 374,-116"/>
</g>
<g id="clust8" class="cluster">
<title>cluster003</title>
<polygon fill="none" stroke="#000000" points="521,-332 521,-384 717,-384 717,-332 521,-332"/>
</g>
<g id="clust10" class="cluster">
<title>cluster004</title>
<polygon fill="none" stroke="#000000" points="161,-8 161,-60 539,-60 539,-8 161,-8"/>
</g>
<g id="clust13" class="cluster">
<title>cluster005</title>
<polygon fill="none" stroke="#000000" points="80,-116 80,-168 318,-168 318,-116 80,-116"/>
</g>
<g id="clust15" class="cluster">
<title>cluster999</title>
<polygon fill="none" stroke="#000000" points="773,-332 773,-384 1643,-384 1643,-332 773,-332"/>
</g>
<!-- cabin -->
<g id="node1" class="node">
<title>cabin</title>
<text text-anchor="middle" x="682" y="-245.8" font-family="Times,serif" font-size="14.00" fill="#000000">cabin</text>
</g>
<!-- forest -->
<g id="node6" class="node">
<title>forest</title>
<text text-anchor="middle" x="682" y="-137.8" font-family="Times,serif" font-size="14.00" fill="#000000">forest</text>
</g>
<!-- cabin&#45;&gt;forest -->
<g id="edge1" class="edge">
<title>cabin-&gt;forest</title>
<path fill="none" stroke="#000000" d="M673,-231.6793C673,-231.6793 673,-170.0502 673,-170.0502"/>
<polygon fill="#000000" stroke="#000000" points="676.5001,-170.0501 673,-160.0502 669.5001,-170.0502 676.5001,-170.0501"/>
</g>
<!-- potion -->
<g id="node2" class="node">
<title>potion</title>
<polygon fill="none" stroke="#000000" points="532,-268 481.475,-250 532,-232 582.525,-250 532,-268"/>
<text text-anchor="middle" x="532" y="-245.8" font-family="Times,serif" font-size="14.00" fill="#000000">potion</text>
</g>
<!-- axe -->
<g id="node3" class="node">
<title>axe</title>
<polygon fill="none" stroke="#000000" points="375,-268 340.3776,-250 375,-232 409.6224,-250 375,-268"/>
<text text-anchor="middle" x="375" y="-245.8" font-family="Times,serif" font-size="14.00" fill="#000000">axe</text>
</g>
<!-- coin -->
<g id="node4" class="node">
<title>coin</title>
<polygon fill="none" stroke="#000000" points="229,-268 189.7545,-250 229,-232 268.2455,-250 229,-268"/>
<text text-anchor="middle" x="229" y="-245.8" font-family="Times,serif" font-size="14.00" fill="#000000">coin</text>
</g>
<!-- trapdoor -->
<g id="node5" class="node">
<title>trapdoor</title>
<polygon fill="none" stroke="#000000" points="117.5372,-250 92.2686,-268 41.7314,-268 16.4628,-250 41.7314,-232 92.2686,-232 117.5372,-250"/>
<text text-anchor="middle" x="67" y="-245.8" font-family="Times,serif" font-size="14.00" fill="#000000">trapdoor</text>
</g>
<!-- forest&#45;&gt;cabin -->
<g id="edge2" class="edge">
<title>forest-&gt;cabin</title>
<path fill="none" stroke="#000000" d="M691,-160.3207C691,-160.3207 691,-221.9498 691,-221.9498"/>
<polygon fill="#000000" stroke="#000000" points="687.5001,-221.9498 691,-231.9498 694.5001,-221.9499 687.5001,-221.9498"/>
</g>
<!-- riverbank -->
<g id="node11" class="node">
<title>riverbank</title>
<text text-anchor="middle" x="496" y="-29.8" font-family="Times,serif" font-size="14.00" fill="#000000">riverbank</text>
</g>
<!-- forest&#45;&gt;riverbank -->
<g id="edge4" class="edge">
<title>forest-&gt;riverbank</title>
<path fill="none" stroke="#000000" d="M673,-123.7644C673,-94.4256 673,-40 673,-40 673,-40 540.9695,-40 540.9695,-40"/>
<polygon fill="#000000" stroke="#000000" points="540.9695,-36.5001 530.9695,-40 540.9695,-43.5001 540.9695,-36.5001"/>
</g>
<!-- key -->
<g id="node7" class="node">
<title>key</title>
<polygon fill="none" stroke="#000000" points="548,-160 512.8446,-142 548,-124 583.1554,-142 548,-160"/>
<text text-anchor="middle" x="548" y="-137.8" font-family="Times,serif" font-size="14.00" fill="#000000">key</text>
</g>
<!-- tree -->
<g id="node8" class="node">
<title>tree</title>
<polygon fill="none" stroke="#000000" points="440.4092,-142 425.7046,-160 396.2954,-160 381.5908,-142 396.2954,-124 425.7046,-124 440.4092,-142"/>
<text text-anchor="middle" x="411" y="-137.8" font-family="Times,serif" font-size="14.00" fill="#000000">tree</text>
</g>
<!-- cellar -->
<g id="node9" class="node">
<title>cellar</title>
<text text-anchor="middle" x="682" y="-353.8" font-family="Times,serif" font-size="14.00" fill="#000000">cellar</text>
</g>
<!-- cellar&#45;&gt;cabin -->
<g id="edge3" class="edge">
<title>cellar-&gt;cabin</title>
<path fill="none" stroke="#000000" d="M682,-339.6793C682,-339.6793 682,-278.0502 682,-278.0502"/>
<polygon fill="#000000" stroke="#000000" points="685.5001,-278.0501 682,-268.0502 678.5001,-278.0502 685.5001,-278.0501"/>
</g>
<!-- elf -->
<g id="node10" class="node">
<title>elf</title>
<ellipse fill="none" stroke="#000000" cx="556" cy="-358" rx="27" ry="18"/>
<text text-anchor="middle" x="556" y="-353.8" font-family="Times,serif" font-size="14.00" fill="#000000">elf</text>
</g>
<!-- riverbank&#45;&gt;forest -->
<g id="edge5" class="edge">
<title>riverbank-&gt;forest</title>
<path fill="none" stroke="#000000" d="M530.8621,-28C586.951,-28 691,-28 691,-28 691,-28 691,-113.9364 691,-113.9364"/>
<polygon fill="#000000" stroke="#000000" points="687.5001,-113.9363 691,-123.9364 694.5001,-113.9364 687.5001,-113.9363"/>
</g>
<!-- horn -->
<g id="node12" class="node">
<title>horn</title>
<polygon fill="none" stroke="#000000" points="349,-52 308.2198,-34 349,-16 389.7802,-34 349,-52"/>
<text text-anchor="middle" x="349" y="-29.8" font-family="Times,serif" font-size="14.00" fill="#000000">horn</text>
</g>
<!-- river -->
<g id="node13" class="node">
<title>river</title>
<polygon fill="none" stroke="#000000" points="236.5858,-34 219.7929,-52 186.2071,-52 169.4142,-34 186.2071,-16 219.7929,-16 236.5858,-34"/>
<text text-anchor="middle" x="203" y="-29.8" font-family="Times,serif" font-size="14.00" fill="#000000">river</text>
</g>
<!-- clearing -->
<g id="node14" class="node">
<title>clearing</title>
<text text-anchor="middle" x="279" y="-137.8" font-family="Times,serif" font-size="14.00" fill="#000000">clearing</text>
</g>
<!-- clearing&#45;&gt;riverbank -->
<g id="edge6" class="edge">
<title>clearing-&gt;riverbank</title>
<path fill="none" stroke="#000000" d="M278.4087,-123.7181C278.4087,-108.0522 278.4087,-88 278.4087,-88 278.4087,-88 471.3335,-88 471.3335,-88 471.3335,-88 471.3335,-62.2819 471.3335,-62.2819"/>
<polygon fill="#000000" stroke="#000000" points="474.8336,-62.2819 471.3335,-52.2819 467.8336,-62.282 474.8336,-62.2819"/>
</g>
<!-- ground -->
<g id="node15" class="node">
<title>ground</title>
<polygon fill="none" stroke="#000000" points="176.167,-142 154.0835,-160 109.9165,-160 87.833,-142 109.9165,-124 154.0835,-124 176.167,-142"/>
<text text-anchor="middle" x="132" y="-137.8" font-family="Times,serif" font-size="14.00" fill="#000000">ground</text>
</g>
<!-- storeroom -->
<g id="node16" class="node">
<title>storeroom</title>
<text text-anchor="middle" x="1599" y="-353.8" font-family="Times,serif" font-size="14.00" fill="#000000">storeroom</text>
</g>
<!-- lumberjack -->
<g id="node17" class="node">
<title>lumberjack</title>
<ellipse fill="none" stroke="#000000" cx="1436" cy="-358" rx="54.4527" ry="18"/>
<text text-anchor="middle" x="1436" y="-353.8" font-family="Times,serif" font-size="14.00" fill="#000000">lumberjack</text>
</g>
<!-- log -->
<g id="node18" class="node">
<title>log</title>
<polygon fill="none" stroke="#000000" points="1276,-376 1242.8794,-358 1276,-340 1309.1206,-358 1276,-376"/>
<text text-anchor="middle" x="1276" y="-353.8" font-family="Times,serif" font-size="14.00" fill="#000000">log</text>
</g>
<!-- shovel -->
<g id="node19" class="node">
<title>shovel</title>
<polygon fill="none" stroke="#000000" points="1120,-376 1068.9744,-358 1120,-340 1171.0256,-358 1120,-376"/>
<text text-anchor="middle" x="1120" y="-353.8" font-family="Times,serif" font-size="14.00" fill="#000000">shovel</text>
</g>
<!-- gold -->
<g id="node20" class="node">
<title>gold</title>
<polygon fill="none" stroke="#000000" points="957,-376 917.2222,-358 957,-340 996.7778,-358 957,-376"/>
<text text-anchor="middle" x="957" y="-353.8" font-family="Times,serif" font-size="14.00" fill="#000000">gold</text>
</g>
<!-- hole -->
<g id="node21" class="node">
<title>hole</title>
<polygon fill="none" stroke="#000000" points="844.887,-358 828.9435,-376 797.0565,-376 781.113,-358 797.0565,-340 828.9435,-340 844.887,-358"/>
<text text-anchor="middle" x="813" y="-353.8" font-family="Times,serif" font-size="14.00" fill="#000000">hole</text>
</g>
</g>
</svg>